<svg width="3011" height="2509" viewBox="0 0 3011 2509" fill="none" xmlns="http://www.w3.org/2000/svg">
<path d="M1.43011e-05 0C395.417 0.00942249 786.963 64.6602 1152.28 190.253C1517.59 315.846 1849.53 499.921 2129.12 731.978C2408.72 964.034 2630.51 1239.53 2781.82 1542.72C2933.13 1845.91 3011.01 2170.87 3011 2499.04L2514.18 2499.02C2514.19 2166.38 2436.31 1836.98 2285 1529.65C2133.69 1222.32 1911.9 943.07 1632.31 707.845C1352.71 472.619 1020.77 286.022 655.459 158.714C444.297 85.1269 224.371 32.1816 0 0.599165L1.43011e-05 0Z" fill="white"/>
<path d="M10.5748 1003.6L10.5508 2007.2C141.631 2007.21 271.428 1981.25 392.532 1930.81C513.636 1880.38 623.677 1806.46 716.368 1713.27C809.058 1620.08 882.583 1509.44 932.748 1387.68C981.972 1268.2 1007.74 1140.31 1008.69 1011.04C1008.05 1206.21 982.27 1399.35 932.731 1579.71C882.565 1762.35 809.038 1928.31 716.347 2068.09C623.655 2207.88 513.613 2318.76 392.508 2394.41C271.404 2470.06 141.607 2509 10.5265 2509L10.5624 1003.6H10.5748Z" fill="url(#paint0_linear_564_3565)"/>
<defs>
<linearGradient id="paint0_linear_564_3565" x1="509.64" y1="1003.61" x2="509.604" y2="2509.01" gradientUnits="userSpaceOnUse">
<stop stop-opacity="0"/>
<stop offset="1" stop-color="white"/>
</linearGradient>
</defs>
</svg>
